{"title":"Blade Runner ","uid":12170522,"size":2319542094,"categoryP":"video","categoryS":"movies","magnet":"?xt=urn:btih:2f0d49c3ed30ada55e7686773e3766e50ff6eb6b&amp;dn=Blade+Runner+&amp;tr=udp%3A%2F%2Ftracker.openbittorrent.com%3A80&amp;tr=udp%3A%2F%2Fopen.demonii.com%3A1337&amp;tr=udp%3A%2F%2Ftracker.coppersurfer.tk%3A6969&amp;tr=udp%3A%2F%2Fexodus.desync.com%3A6969","seeders":6,"leechers":0,"uploader":"Mulva1989","files":1,"time":1438165615,"description":"Blade Runner &quot;The Version You've Never Seen Before&quot; FANEDIT DVDrip x264\n\nA total re-cut of Blade Runner that incorporates all deleted scenes, parts of the workprint, alternate shots from raw camera reels, with new voice-over throughout. The intention is to give as radical a new cut of the film as can be had; the result is more hard-boiled detective, with different thematic emphases.\n\nProject info page @  &lt;a href=&quot;\nhttp://originaltrilogy.com/fan-edits/fan-project-details.cfm/Fan-Edits/title/Blade-Runner-The-Version-You-ve-Never-Seen-Before/project/362/category/4/&quot; rel=&quot;nofollow&quot; target=&quot;_NEW&quot;&gt;\nhttp://originaltrilogy.com/fan-edits/fan-project-details.cfm/Fan-Edits/title/Blade-Runner-The-Version-You-ve-Never-Seen-Before/project/362/category/4/&lt;/a&gt;\n\nCover @ &lt;a href=&quot;\nhttps://yuq.me/users/50/321/3WRVG6q7fb.png&quot; rel=&quot;nofollow&quot; target=&quot;_NEW&quot;&gt;\nhttps://yuq.me/users/50/321/3WRVG6q7fb.png&lt;/a&gt;\n\nScreens @ &lt;a href=&quot;\nhttps://yuq.me/users/50/321/EWeIMl8qQf.png&quot; rel=&quot;nofollow&quot; target=&quot;_NEW&quot;&gt;\nhttps://yuq.me/users/50/321/EWeIMl8qQf.png&lt;/a&gt; &lt;a href=&quot;\nhttps://yuq.me/users/50/321/soNQ3ZOPFC.jpg&quot; rel=&quot;nofollow&quot; target=&quot;_NEW&quot;&gt;\nhttps://yuq.me/users/50/321/soNQ3ZOPFC.jpg&lt;/a&gt;\n\nFormat : Matroska\nFormat version : Version 4 / Version 2\nFile size : 2.16 GiB\nDuration : 1h 57mn\nOverall bit rate : 2 639 Kbps\nMovie name : Blade Runner: The Version You've Never Seen Before (Beta)\nEncoded date : UTC 2014-07-12 06:35:16\nWriting application : Meteorite 0.11 Beta\nWriting library : Meteorite 0.11 Beta\n\nVideo\nID : 1\nFormat : AVC\nFormat/Info : Advanced Video Codec\nFormat profile : &lt;a class=&quot;__cf_email__&quot; href=&quot;/cdn-cgi/l/email-protection&quot; data-cfemail=&quot;2f674648476f631c011f&quot;&gt;[email&amp;#160;protected]&lt;/a&gt;&lt;script data-cfhash='f9e31' type=&quot;text/javascript&quot;&gt;\n/* &lt;![CDATA[ */!function(){try{var t=&quot;currentScript&quot;in document?document.currentScript:function(){for(var t=document.getElementsByTagName(&quot;script&quot;),e=t.length;e--;)if(t[e].getAttribute(&quot;data-cfhash&quot;))return t[e]}();if(t&amp;&amp;t.previousSibling){var e,r,n,i,c=t.previousSibling,a=c.getAttribute(&quot;data-cfemail&quot;);if(a){for(e=&quot;&quot;,r=parseInt(a.substr(0,2),16),n=2;a.length-n;n+=2)i=parseInt(a.substr(n,2),16)^r,e+=String.fromCharCode(i);e=document.createTextNode(e),c.parentNode.replaceChild(e,c)}t.parentNode.removeChild(t);}}catch(u){}}()/* ]]&gt; */&lt;/script&gt;\nFormat settings, CABAC : Yes\nFormat settings, ReFrames : 5 frames\nCodec ID : V_MPEG4/ISO/AVC\nDuration : 1h 57mn\nBit rate : 2 331 Kbps\nWidth : 720 pixels\nHeight : 480 pixels\nDisplay aspect ratio : 16:9\nOriginal display aspect rat : 16:9\nFrame rate mode : Constant\nFrame rate : 23.976 fps\nStandard : NTSC\nColor space : YUV\nChroma subsampling : 4:2:0\nBit depth : 8 bits\nScan type : Progressive\nBits/(Pixel*Frame) : 0.281\nStream size : 1.91 GiB (88%)\nWriting library : x264 core 142 r2431 ac76440\nEncoding settings : cabac=1 / ref=5 / deblock=1:-3:-1 / analyse=0x3:0x133 / me=umh / subme=7 / psy=1 / psy_rd=1.00:0.15 / mixed_ref=1 / me_range=16 / chroma_me=1 / trellis=1 / 8x8dct=1 / cqm=0 / deadzone=21,11 / fast_pskip=1 / chroma_qp_offset=-3 / threads=3 / lookahead_threads=1 / sliced_threads=0 / nr=0 / decimate=1 / interlaced=0 / bluray_compat=0 / constrained_intra=0 / bframes=5 / b_pyramid=2 / b_adapt=1 / b_bias=0 / direct=1 / weightb=1 / open_gop=0 / weightp=2 / keyint=240 / keyint_min=23 / scenecut=40 / intra_refresh=0 / rc_lookahead=40 / rc=crf / mbtree=1 / crf=16.0 / qcomp=0.60 / qpmin=0 / qpmax=69 / qpstep=4 / ip_ratio=1.40 / aq=1:1.00\nLanguage : English\nDefault : Yes\nForced : No\n\nAudio\nID : 2\nFormat : AC-3\nFormat/Info : Audio Coding 3\nMode extension : CM (complete main)\nFormat settings, Endianness : Big\nCodec ID : A_AC3\nDuration : 1h 57mn\nBit rate mode : Constant\nBit rate : 256 Kbps\nChannel(s) : 2 channels\nChannel positions : Front: L R\nSampling rate : 48.0 KHz\nBit depth : 16 bits\nCompression mode : Lossy\nStream size : 215 MiB (10%)\nLanguage : English\nDefault : Yes\nForced : No\n\nMenu\n00:00:00.000 : en:Chapter 1\n00:15:00.000 : en:Chapter 2\n00:30:00.000 : en:Chapter 3\n00:45:00.000 : en:Chapter 4\n01:00:00.000 : en:Chapter 5\n01:15:00.000 : en:Chapter 6\n01:30:00.000 : en:Chapter 7\n01:45:00.000 : en:Chapter 8","torrent":{"xt":"urn:btih:2f0d49c3ed30ada55e7686773e3766e50ff6eb6b","amp;dn":"Blade+Runner+","amp;tr":["udp%3A%2F%2Ftracker.openbittorrent.com%3A80","udp%3A%2F%2Fopen.demonii.com%3A1337","udp%3A%2F%2Ftracker.coppersurfer.tk%3A6969","udp%3A%2F%2Fexodus.desync.com%3A6969"],"infoHash":"2f0d49c3ed30ada55e7686773e3766e50ff6eb6b","infoHashBuffer":{"type":"Buffer","data":[47,13,73,195,237,48,173,165,94,118,134,119,62,55,102,229,15,246,235,107]},"announce":[],"urlList":[]}}